<?xml version="1.0" encoding="UTF-8" standalone="no"?>
<svg
   viewBox="-100 0 512 512"
   version="1.1"
   id="svg9712"
   sodipodi:docname="close.svg"
   width="512"
   height="512"
   inkscape:version="1.2.1 (9c6d41e, 2022-07-14)"
   inkscape:export-filename="close.png"
   inkscape:export-xdpi="96"
   inkscape:export-ydpi="96"
   xmlns:inkscape="http://www.inkscape.org/namespaces/inkscape"
   xmlns:sodipodi="http://sodipodi.sourceforge.net/DTD/sodipodi-0.dtd"
   xmlns="http://www.w3.org/2000/svg"
   xmlns:svg="http://www.w3.org/2000/svg">
  <defs
     id="defs9716" />
  <sodipodi:namedview
     id="namedview9714"
     pagecolor="#ffffff"
     bordercolor="#000000"
     borderopacity="0.25"
     inkscape:showpageshadow="2"
     inkscape:pageopacity="0.0"
     inkscape:pagecheckerboard="0"
     inkscape:deskcolor="#d1d1d1"
     showgrid="false"
     inkscape:zoom="0.29023951"
     inkscape:cx="132.64907"
     inkscape:cy="175.71695"
     inkscape:window-width="926"
     inkscape:window-height="456"
     inkscape:window-x="684"
     inkscape:window-y="174"
     inkscape:window-maximized="0"
     inkscape:current-layer="svg9712" />
  <!--! Font Awesome Pro 6.2.1 by @fontawesome - https://fontawesome.com License - https://fontawesome.com/license (Commercial License) Copyright 2022 Fonticons, Inc. -->
  <path
     d="m 268.46061,180.09198 c 9.00237,-9.00238 9.00237,-23.62223 0,-32.62461 -9.00238,-9.00237 -23.62223,-9.00237 -32.62461,0 L 160,223.3754 84.091979,147.53939 c -9.002374,-9.00237 -23.62223,-9.00237 -32.624604,0 -9.002375,9.00238 -9.002375,23.62223 0,32.62461 L 127.3754,256 51.539394,331.90802 c -9.002375,9.00238 -9.002375,23.62223 0,32.62461 9.002374,9.00237 23.62223,9.00237 32.624604,0 L 160,288.6246 l 75.90802,75.83601 c 9.00238,9.00237 23.62223,9.00237 32.62461,0 9.00237,-9.00238 9.00237,-23.62223 0,-32.62461 L 192.6246,256 Z"
     id="path9710"
     style="stroke-width:0.72019" />
</svg>
