<?xml version="1.0" encoding="UTF-8" standalone="no"?>
<svg
   viewBox="0 0 512 512"
   version="1.1"
   id="svg451"
   sodipodi:docname="icon.svg"
   inkscape:version="1.2.1 (9c6d41e, 2022-07-14)"
   inkscape:export-filename="icon.png"
   inkscape:export-xdpi="33.75"
   inkscape:export-ydpi="33.75"
   xmlns:inkscape="http://www.inkscape.org/namespaces/inkscape"
   xmlns:sodipodi="http://sodipodi.sourceforge.net/DTD/sodipodi-0.dtd"
   xmlns="http://www.w3.org/2000/svg"
   xmlns:svg="http://www.w3.org/2000/svg">
  <defs
     id="defs455" />
  <sodipodi:namedview
     id="namedview453"
     pagecolor="#ffffff"
     bordercolor="#000000"
     borderopacity="0.25"
     inkscape:showpageshadow="2"
     inkscape:pageopacity="0.0"
     inkscape:pagecheckerboard="0"
     inkscape:deskcolor="#d1d1d1"
     showgrid="false"
     inkscape:zoom="0.33467397"
     inkscape:cx="-227.08668"
     inkscape:cy="385.44976"
     inkscape:window-width="1309"
     inkscape:window-height="456"
     inkscape:window-x="0"
     inkscape:window-y="37"
     inkscape:window-maximized="0"
     inkscape:current-layer="layer3" />
  <!--! Font Awesome Pro 6.2.1 by @fontawesome - https://fontawesome.com License - https://fontawesome.com/license (Commercial License) Copyright 2022 Fonticons, Inc. -->
  <g
     inkscape:groupmode="layer"
     id="layer3"
     inkscape:label="Background"
     style="fill:#000000">
    <rect
       style="fill:#000000;fill-opacity:1;stroke-width:20;stroke-linecap:round;stroke-linejoin:round"
       id="rect1448"
       width="512"
       height="512"
       x="0"
       y="0"
       inkscape:label="Rect" />
    <path
       d="m 99.142325,228.96136 c -7.33346,-9.96455 -5.2062,-23.9597 4.758365,-31.29316 l 70.87145,-52.22991 c 13.04348,-9.62867 28.886,-14.83486 45.12037,-14.83486 h 89.84888 89.56899 c 9.90857,0 17.91379,8.00522 17.91379,17.91379 v 35.8276 c 0,9.90856 -8.00522,17.91379 -17.91379,17.91379 h -20.60087 l -25.13529,20.15302 c -12.7076,10.18847 -28.49413,15.67457 -44.78449,15.67457 h -43.83282 -8.9569 -35.82759 c -9.90857,0 -17.9138,-8.00522 -17.9138,-17.91379 0,-9.90857 8.00523,-17.9138 17.9138,-17.9138 h 35.82759 8.9569 c 4.92629,0 8.9569,-4.0306 8.9569,-8.9569 0,-4.92629 -4.03061,-8.95689 -8.9569,-8.95689 h -67.51262 l -67.0088,49.3749 c -9.96454,7.33346 -23.9597,5.20619 -31.293165,-4.75836 z M 308.84571,202.25861 v 0 h 0.50382 c -0.16794,0 -0.33588,0 -0.50382,0 z m 104.01197,80.78003 c 7.33346,9.96455 5.2062,23.9597 -4.75834,31.29316 l -70.87146,52.22991 c -13.09947,9.62867 -28.88601,14.83486 -45.17635,14.83486 h -89.79291 -89.56899 c -9.90857,0 -17.913795,-8.00522 -17.913795,-17.91379 v -35.8276 c 0,-9.90856 8.005225,-17.91379 17.913795,-17.91379 h 20.60087 l 25.13529,-20.15302 c 12.7076,-10.18847 28.49413,-15.67457 44.78449,-15.67457 h 43.83283 8.9569 35.82759 c 9.90857,0 17.91379,8.00522 17.91379,17.91379 0,9.90857 -8.00522,17.9138 -17.91379,17.9138 h -35.82759 -8.9569 c -4.92629,0 -8.9569,4.0306 -8.9569,8.9569 0,4.92629 4.03061,8.95689 8.9569,8.95689 h 67.51262 l 67.0088,-49.3749 c 9.96454,-7.33346 23.9597,-5.20619 31.29315,4.75836 z m -209.70337,26.70275 v 0 h -0.50382 c 0.16794,0 0.33588,0 0.50382,0 z"
       id="path2350"
       style="fill:#ffffff;stroke-width:0.559806" />
  </g>
</svg>
