<?xml version="1.0" encoding="UTF-8" standalone="no"?>
<svg
   viewBox="-32 -32 448 448"
   version="1.1"
   id="svg9195"
   sodipodi:docname="menu.svg"
   inkscape:export-filename="menu.png"
   inkscape:export-xdpi="13.71"
   inkscape:export-ydpi="13.71"
   width="448"
   height="448"
   inkscape:version="1.2.1 (9c6d41e, 2022-07-14)"
   xmlns:inkscape="http://www.inkscape.org/namespaces/inkscape"
   xmlns:sodipodi="http://sodipodi.sourceforge.net/DTD/sodipodi-0.dtd"
   xmlns="http://www.w3.org/2000/svg"
   xmlns:svg="http://www.w3.org/2000/svg">
  <defs
     id="defs9199" />
  <sodipodi:namedview
     id="namedview9197"
     pagecolor="#ffffff"
     bordercolor="#000000"
     borderopacity="0.25"
     inkscape:showpageshadow="2"
     inkscape:pageopacity="0.0"
     inkscape:pagecheckerboard="0"
     inkscape:deskcolor="#d1d1d1"
     showgrid="false"
     inkscape:zoom="0.33987223"
     inkscape:cx="5.8845643"
     inkscape:cy="191.24834"
     inkscape:window-width="1385"
     inkscape:window-height="742"
     inkscape:window-x="0"
     inkscape:window-y="37"
     inkscape:window-maximized="0"
     inkscape:current-layer="svg9195" />
  <!--! Font Awesome Pro 6.2.1 by @fontawesome - https://fontawesome.com License - https://fontawesome.com/license (Commercial License) Copyright 2022 Fonticons, Inc. -->
  <path
     d="m 80,112 c 0,-8.85 7.15,-16 16,-16 h 192 c 8.85,0 16,7.15 16,16 0,8.85 -7.15,16 -16,16 H 96 c -8.85,0 -16,-7.15 -16,-16 z m 0,80 c 0,-8.85 7.15,-16 16,-16 h 192 c 8.85,0 16,7.15 16,16 0,8.85 -7.15,16 -16,16 H 96 c -8.85,0 -16,-7.15 -16,-16 z m 224,80 c 0,8.85 -7.15,16 -16,16 H 96 c -8.85,0 -16,-7.15 -16,-16 0,-8.85 7.15,-16 16,-16 h 192 c 8.85,0 16,7.15 16,16 z"
     id="path9193"
     style="fill:#000000;stroke-width:0.5" />
</svg>
